# xmcd CD database file
#
# Track frame offsets:
#	150
#	30352
#	58935
#	87127
#	116950
#	150117
#	176345
#	214965
#	246390
#
# Disc length: 3730 seconds
#
# Revision: 0
# Processed by: cddbd v1.5.1PL0 Copyright (c) Steve Scherf et al.
# Submitted via: CDex 1.51
#
DISCID=710e9009
DTITLE=Dave Pietro - Bow Becoming Then
DYEAR=1999
DGENRE=Jazz
TTITLE0=Now becoming then
TTITLE1=gifts
TTITLE2=quiescence
TTITLE3=vicissitudes
TTITLE4=princesca
TTITLE5=permission granted
TTITLE6=tender lies
TTITLE7=alone together
TTITLE8=maitri
EXTD=YEAR: 1999
EXTT0=
EXTT1=
EXTT2=
EXTT3=
EXTT4=
EXTT5=
EXTT6=
EXTT7=
EXTT8=
PLAYORDER=
